<svg xmlns="http://www.w3.org/2000/svg" viewBox="0 0 60 60" width="60" height="60">
  <rect x="8" y="12" width="44" height="40" rx="4" fill="#4A90D9" />
  <rect x="8" y="12" width="44" height="12" rx="4" fill="#3B7DD8" />
  <rect x="8" y="20" width="44" height="4" fill="#3B7DD8" />
  <circle cx="20" cy="12" r="2" fill="#fff" />
  <circle cx="40" cy="12" r="2" fill="#fff" />
  <rect x="16" y="10" width="2" height="6" rx="1" fill="#fff" />
  <rect x="36" y="10" width="2" height="6" rx="1" fill="#fff" />
  <rect x="15" y="30" width="8" height="6" rx="1" fill="rgba(255,255,255,0.9)" />
  <rect x="26" y="30" width="8" height="6" rx="1" fill="rgba(255,255,255,0.9)" />
  <rect x="37" y="30" width="8" height="6" rx="1" fill="rgba(255,255,255,0.9)" />
  <rect x="15" y="40" width="8" height="6" rx="1" fill="rgba(255,255,255,0.9)" />
  <rect x="26" y="40" width="8" height="6" rx="1" fill="rgba(255,255,255,0.9)" />
  <rect x="37" y="40" width="8" height="6" rx="1" fill="rgba(255,255,255,0.5)" />
</svg>
