<svg xmlns="http://www.w3.org/2000/svg" viewBox="0 0 60 60" width="60" height="60">
  <!-- GitHub Octocat silhouette -->
  <path d="M30 6C16.745 6 6 16.745 6 30c0 10.6 6.876 19.594 16.413 22.762 1.2.22 1.638-.52 1.638-1.155 0-.57-.021-2.08-.033-4.084-6.676 1.45-8.085-3.218-8.085-3.218-1.091-2.772-2.664-3.51-2.664-3.51-2.178-1.489.165-1.459.165-1.459 2.408.17 3.675 2.472 3.675 2.472 2.14 3.666 5.614 2.606 6.984 1.993.218-1.55.838-2.607 1.524-3.207-5.33-.606-10.932-2.665-10.932-11.862 0-2.62.935-4.763 2.47-6.44-.248-.605-1.07-3.047.234-6.352 0 0 2.015-.645 6.6 2.46a23.04 23.04 0 016.012-.809c2.04.01 4.095.276 6.012.81 4.58-3.106 6.592-2.461 6.592-2.461 1.308 3.305.486 5.747.238 6.352 1.538 1.677 2.467 3.82 2.467 6.44 0 9.22-5.612 11.249-10.958 11.843.862.742 1.63 2.206 1.63 4.446 0 3.21-.03 5.8-.03 6.59 0 .64.432 1.385 1.65 1.15C47.133 49.585 54 40.596 54 30 54 16.745 43.255 6 30 6z" fill="#24292e"/>
  <!-- Bell notification -->
  <circle cx="46" cy="14" r="10" fill="#FF4444"/>
  <path d="M46 8a4.5 4.5 0 00-4.5 4.5v2.25c0 1.5-.75 2.85-1.5 3.75h12c-.75-.9-1.5-2.25-1.5-3.75V12.5A4.5 4.5 0 0046 8z" fill="#fff"/>
  <circle cx="46" cy="20" r="1.5" fill="#fff"/>
</svg>
